<?xml version="1.0" encoding="UTF-8" standalone="no"?>
<!DOCTYPE svg PUBLIC "-//W3C//DTD SVG 1.1//EN"
 "http://www.w3.org/Graphics/SVG/1.1/DTD/svg11.dtd">
<!-- Generated by graphviz version 2.43.0 (0)
 -->
<!-- Title: %3 Pages: 1 -->
<svg width="2208pt" height="404pt"
 viewBox="0.00 0.00 2207.50 404.00" xmlns="http://www.w3.org/2000/svg" xmlns:xlink="http://www.w3.org/1999/xlink">
<g id="graph0" class="graph" transform="scale(1 1) rotate(0) translate(4 400)">
<title>%3</title>
<polygon fill="white" stroke="transparent" points="-4,4 -4,-400 2203.5,-400 2203.5,4 -4,4"/>
<!-- [root] aws_instance.Ec2Instance (expand) -->
<g id="node1" class="node">
<title>[root] aws_instance.Ec2Instance (expand)</title>
<polygon fill="none" stroke="black" points="203,-252 0,-252 0,-216 203,-216 203,-252"/>
<text text-anchor="middle" x="101.5" y="-230.3" font-family="Times,serif" font-size="14.00">aws_instance.Ec2Instance</text>
</g>
<!-- [root] aws_security_group.allow_http_ssh (expand) -->
<g id="node12" class="node">
<title>[root] aws_security_group.allow_http_ssh (expand)</title>
<polygon fill="none" stroke="black" points="634,-180 367,-180 367,-144 634,-144 634,-180"/>
<text text-anchor="middle" x="500.5" y="-158.3" font-family="Times,serif" font-size="14.00">aws_security_group.allow_http_ssh</text>
</g>
<!-- [root] aws_instance.Ec2Instance (expand)&#45;&gt;[root] aws_security_group.allow_http_ssh (expand) -->
<g id="edge1" class="edge">
<title>[root] aws_instance.Ec2Instance (expand)&#45;&gt;[root] aws_security_group.allow_http_ssh (expand)</title>
<path fill="none" stroke="black" d="M198.6,-215.97C257.48,-205.63 332.71,-192.44 393.33,-181.8"/>
<polygon fill="black" stroke="black" points="394.07,-185.23 403.31,-180.05 392.86,-178.33 394.07,-185.23"/>
</g>
<!-- [root] aws_subnet.pub&#45;subnet1 (expand) -->
<g id="node13" class="node">
<title>[root] aws_subnet.pub&#45;subnet1 (expand)</title>
<polygon fill="none" stroke="black" points="348.5,-180 154.5,-180 154.5,-144 348.5,-144 348.5,-180"/>
<text text-anchor="middle" x="251.5" y="-158.3" font-family="Times,serif" font-size="14.00">aws_subnet.pub&#45;subnet1</text>
</g>
<!-- [root] aws_instance.Ec2Instance (expand)&#45;&gt;[root] aws_subnet.pub&#45;subnet1 (expand) -->
<g id="edge2" class="edge">
<title>[root] aws_instance.Ec2Instance (expand)&#45;&gt;[root] aws_subnet.pub&#45;subnet1 (expand)</title>
<path fill="none" stroke="black" d="M138.19,-215.88C158.52,-206.39 183.97,-194.51 205.6,-184.42"/>
<polygon fill="black" stroke="black" points="207.34,-187.47 214.93,-180.07 204.38,-181.13 207.34,-187.47"/>
</g>
<!-- [root] var.ami -->
<g id="node20" class="node">
<title>[root] var.ami</title>
<polygon fill="none" stroke="black" points="130,-180 67,-180 67,-144 136,-144 136,-174 130,-180"/>
<polyline fill="none" stroke="black" points="130,-180 130,-174 "/>
<polyline fill="none" stroke="black" points="136,-174 130,-174 "/>
<text text-anchor="middle" x="101.5" y="-158.3" font-family="Times,serif" font-size="14.00">var.ami</text>
</g>
<!-- [root] aws_instance.Ec2Instance (expand)&#45;&gt;[root] var.ami -->
<g id="edge3" class="edge">
<title>[root] aws_instance.Ec2Instance (expand)&#45;&gt;[root] var.ami</title>
<path fill="none" stroke="black" d="M101.5,-215.7C101.5,-207.98 101.5,-198.71 101.5,-190.11"/>
<polygon fill="black" stroke="black" points="105,-190.1 101.5,-180.1 98,-190.1 105,-190.1"/>
</g>
<!-- [root] aws_internet_gateway.igw (expand) -->
<g id="node2" class="node">
<title>[root] aws_internet_gateway.igw (expand)</title>
<polygon fill="none" stroke="black" points="1285,-180 1082,-180 1082,-144 1285,-144 1285,-180"/>
<text text-anchor="middle" x="1183.5" y="-158.3" font-family="Times,serif" font-size="14.00">aws_internet_gateway.igw</text>
</g>
<!-- [root] aws_vpc.my&#45;vpc (expand) -->
<g id="node17" class="node">
<title>[root] aws_vpc.my&#45;vpc (expand)</title>
<polygon fill="none" stroke="black" points="1359,-108 1228,-108 1228,-72 1359,-72 1359,-108"/>
<text text-anchor="middle" x="1293.5" y="-86.3" font-family="Times,serif" font-size="14.00">aws_vpc.my&#45;vpc</text>
</g>
<!-- [root] aws_internet_gateway.igw (expand)&#45;&gt;[root] aws_vpc.my&#45;vpc (expand) -->
<g id="edge4" class="edge">
<title>[root] aws_internet_gateway.igw (expand)&#45;&gt;[root] aws_vpc.my&#45;vpc (expand)</title>
<path fill="none" stroke="black" d="M1210.41,-143.88C1224.66,-134.81 1242.35,-123.55 1257.74,-113.76"/>
<polygon fill="black" stroke="black" points="1259.93,-116.51 1266.49,-108.19 1256.17,-110.61 1259.93,-116.51"/>
</g>
<!-- [root] var.nametag -->
<g id="node22" class="node">
<title>[root] var.nametag</title>
<polygon fill="none" stroke="black" points="1107,-108 1008,-108 1008,-72 1113,-72 1113,-102 1107,-108"/>
<polyline fill="none" stroke="black" points="1107,-108 1107,-102 "/>
<polyline fill="none" stroke="black" points="1113,-102 1107,-102 "/>
<text text-anchor="middle" x="1060.5" y="-86.3" font-family="Times,serif" font-size="14.00">var.nametag</text>
</g>
<!-- [root] aws_internet_gateway.igw (expand)&#45;&gt;[root] var.nametag -->
<g id="edge5" class="edge">
<title>[root] aws_internet_gateway.igw (expand)&#45;&gt;[root] var.nametag</title>
<path fill="none" stroke="black" d="M1153.41,-143.88C1137.18,-134.64 1116.96,-123.13 1099.53,-113.21"/>
<polygon fill="black" stroke="black" points="1101.13,-110.09 1090.7,-108.19 1097.66,-116.18 1101.13,-110.09"/>
</g>
<!-- [root] aws_route.public_internet_gateway (expand) -->
<g id="node3" class="node">
<title>[root] aws_route.public_internet_gateway (expand)</title>
<polygon fill="none" stroke="black" points="1158,-252 889,-252 889,-216 1158,-216 1158,-252"/>
<text text-anchor="middle" x="1023.5" y="-230.3" font-family="Times,serif" font-size="14.00">aws_route.public_internet_gateway</text>
</g>
<!-- [root] aws_route.public_internet_gateway (expand)&#45;&gt;[root] aws_internet_gateway.igw (expand) -->
<g id="edge6" class="edge">
<title>[root] aws_route.public_internet_gateway (expand)&#45;&gt;[root] aws_internet_gateway.igw (expand)</title>
<path fill="none" stroke="black" d="M1062.64,-215.88C1084.51,-206.31 1111.96,-194.3 1135.16,-184.15"/>
<polygon fill="black" stroke="black" points="1136.73,-187.28 1144.49,-180.07 1133.92,-180.87 1136.73,-187.28"/>
</g>
<!-- [root] aws_route_table.pub_rt_1 (expand) -->
<g id="node7" class="node">
<title>[root] aws_route_table.pub_rt_1 (expand)</title>
<polygon fill="none" stroke="black" points="1064,-180 865,-180 865,-144 1064,-144 1064,-180"/>
<text text-anchor="middle" x="964.5" y="-158.3" font-family="Times,serif" font-size="14.00">aws_route_table.pub_rt_1</text>
</g>
<!-- [root] aws_route.public_internet_gateway (expand)&#45;&gt;[root] aws_route_table.pub_rt_1 (expand) -->
<g id="edge7" class="edge">
<title>[root] aws_route.public_internet_gateway (expand)&#45;&gt;[root] aws_route_table.pub_rt_1 (expand)</title>
<path fill="none" stroke="black" d="M1008.92,-215.7C1001.84,-207.3 993.22,-197.07 985.45,-187.86"/>
<polygon fill="black" stroke="black" points="988.04,-185.49 978.92,-180.1 982.69,-190.01 988.04,-185.49"/>
</g>
<!-- [root] aws_route.public_internet_gateway&#45;2 (expand) -->
<g id="node4" class="node">
<title>[root] aws_route.public_internet_gateway&#45;2 (expand)</title>
<polygon fill="none" stroke="black" points="1458.5,-252 1176.5,-252 1176.5,-216 1458.5,-216 1458.5,-252"/>
<text text-anchor="middle" x="1317.5" y="-230.3" font-family="Times,serif" font-size="14.00">aws_route.public_internet_gateway&#45;2</text>
</g>
<!-- [root] aws_route.public_internet_gateway&#45;2 (expand)&#45;&gt;[root] aws_internet_gateway.igw (expand) -->
<g id="edge8" class="edge">
<title>[root] aws_route.public_internet_gateway&#45;2 (expand)&#45;&gt;[root] aws_internet_gateway.igw (expand)</title>
<path fill="none" stroke="black" d="M1284.72,-215.88C1266.87,-206.55 1244.6,-194.92 1225.5,-184.94"/>
<polygon fill="black" stroke="black" points="1226.89,-181.72 1216.41,-180.19 1223.65,-187.92 1226.89,-181.72"/>
</g>
<!-- [root] aws_route_table.Pub_rt_2 (expand) -->
<g id="node6" class="node">
<title>[root] aws_route_table.Pub_rt_2 (expand)</title>
<polygon fill="none" stroke="black" points="1503.5,-180 1303.5,-180 1303.5,-144 1503.5,-144 1503.5,-180"/>
<text text-anchor="middle" x="1403.5" y="-158.3" font-family="Times,serif" font-size="14.00">aws_route_table.Pub_rt_2</text>
</g>
<!-- [root] aws_route.public_internet_gateway&#45;2 (expand)&#45;&gt;[root] aws_route_table.Pub_rt_2 (expand) -->
<g id="edge9" class="edge">
<title>[root] aws_route.public_internet_gateway&#45;2 (expand)&#45;&gt;[root] aws_route_table.Pub_rt_2 (expand)</title>
<path fill="none" stroke="black" d="M1338.76,-215.7C1349.59,-206.88 1362.92,-196.03 1374.66,-186.47"/>
<polygon fill="black" stroke="black" points="1376.94,-189.13 1382.49,-180.1 1372.52,-183.7 1376.94,-189.13"/>
</g>
<!-- [root] aws_route_table.Private_rt_1 (expand) -->
<g id="node5" class="node">
<title>[root] aws_route_table.Private_rt_1 (expand)</title>
<polygon fill="none" stroke="black" points="1745.5,-180 1521.5,-180 1521.5,-144 1745.5,-144 1745.5,-180"/>
<text text-anchor="middle" x="1633.5" y="-158.3" font-family="Times,serif" font-size="14.00">aws_route_table.Private_rt_1</text>
</g>
<!-- [root] aws_route_table.Private_rt_1 (expand)&#45;&gt;[root] aws_vpc.my&#45;vpc (expand) -->
<g id="edge10" class="edge">
<title>[root] aws_route_table.Private_rt_1 (expand)&#45;&gt;[root] aws_vpc.my&#45;vpc (expand)</title>
<path fill="none" stroke="black" d="M1550.76,-143.97C1495.34,-132.56 1422.94,-117.65 1369.07,-106.56"/>
<polygon fill="black" stroke="black" points="1369.74,-103.12 1359.24,-104.53 1368.33,-109.98 1369.74,-103.12"/>
</g>
<!-- [root] aws_route_table.Pub_rt_2 (expand)&#45;&gt;[root] aws_vpc.my&#45;vpc (expand) -->
<g id="edge11" class="edge">
<title>[root] aws_route_table.Pub_rt_2 (expand)&#45;&gt;[root] aws_vpc.my&#45;vpc (expand)</title>
<path fill="none" stroke="black" d="M1376.59,-143.88C1362.34,-134.81 1344.65,-123.55 1329.26,-113.76"/>
<polygon fill="black" stroke="black" points="1330.83,-110.61 1320.51,-108.19 1327.07,-116.51 1330.83,-110.61"/>
</g>
<!-- [root] aws_route_table.pub_rt_1 (expand)&#45;&gt;[root] aws_vpc.my&#45;vpc (expand) -->
<g id="edge12" class="edge">
<title>[root] aws_route_table.pub_rt_1 (expand)&#45;&gt;[root] aws_vpc.my&#45;vpc (expand)</title>
<path fill="none" stroke="black" d="M1044.56,-143.97C1097.36,-132.73 1166.09,-118.11 1217.95,-107.07"/>
<polygon fill="black" stroke="black" points="1218.71,-110.49 1227.76,-104.99 1217.25,-103.65 1218.71,-110.49"/>
</g>
<!-- [root] aws_route_table.pub_rt_1 (expand)&#45;&gt;[root] var.nametag -->
<g id="edge13" class="edge">
<title>[root] aws_route_table.pub_rt_1 (expand)&#45;&gt;[root] var.nametag</title>
<path fill="none" stroke="black" d="M988.23,-143.7C1000.44,-134.8 1015.49,-123.82 1028.68,-114.2"/>
<polygon fill="black" stroke="black" points="1031.02,-116.82 1037.04,-108.1 1026.9,-111.17 1031.02,-116.82"/>
</g>
<!-- [root] aws_route_table_association.association&#45;1 (expand) -->
<g id="node8" class="node">
<title>[root] aws_route_table_association.association&#45;1 (expand)</title>
<polygon fill="none" stroke="black" points="536.5,-252 220.5,-252 220.5,-216 536.5,-216 536.5,-252"/>
<text text-anchor="middle" x="378.5" y="-230.3" font-family="Times,serif" font-size="14.00">aws_route_table_association.association&#45;1</text>
</g>
<!-- [root] aws_route_table_association.association&#45;1 (expand)&#45;&gt;[root] aws_route_table.pub_rt_1 (expand) -->
<g id="edge14" class="edge">
<title>[root] aws_route_table_association.association&#45;1 (expand)&#45;&gt;[root] aws_route_table.pub_rt_1 (expand)</title>
<path fill="none" stroke="black" d="M536.59,-216.19C645.68,-204.46 782.23,-189.46 854.54,-180.08"/>
<polygon fill="black" stroke="black" points="855.28,-183.52 864.73,-178.74 854.36,-176.58 855.28,-183.52"/>
</g>
<!-- [root] aws_route_table_association.association&#45;1 (expand)&#45;&gt;[root] aws_subnet.pub&#45;subnet1 (expand) -->
<g id="edge15" class="edge">
<title>[root] aws_route_table_association.association&#45;1 (expand)&#45;&gt;[root] aws_subnet.pub&#45;subnet1 (expand)</title>
<path fill="none" stroke="black" d="M347.43,-215.88C330.67,-206.64 309.79,-195.13 291.8,-185.21"/>
<polygon fill="black" stroke="black" points="293.13,-181.95 282.69,-180.19 289.76,-188.08 293.13,-181.95"/>
</g>
<!-- [root] aws_route_table_association.association&#45;2 (expand) -->
<g id="node9" class="node">
<title>[root] aws_route_table_association.association&#45;2 (expand)</title>
<polygon fill="none" stroke="black" points="870.5,-252 554.5,-252 554.5,-216 870.5,-216 870.5,-252"/>
<text text-anchor="middle" x="712.5" y="-230.3" font-family="Times,serif" font-size="14.00">aws_route_table_association.association&#45;2</text>
</g>
<!-- [root] aws_route_table_association.association&#45;2 (expand)&#45;&gt;[root] aws_route_table.pub_rt_1 (expand) -->
<g id="edge16" class="edge">
<title>[root] aws_route_table_association.association&#45;2 (expand)&#45;&gt;[root] aws_route_table.pub_rt_1 (expand)</title>
<path fill="none" stroke="black" d="M773.82,-215.97C809.8,-205.97 855.43,-193.3 893.03,-182.85"/>
<polygon fill="black" stroke="black" points="894.2,-186.16 902.9,-180.11 892.33,-179.42 894.2,-186.16"/>
</g>
<!-- [root] aws_subnet.pub&#45;subnet2 (expand) -->
<g id="node14" class="node">
<title>[root] aws_subnet.pub&#45;subnet2 (expand)</title>
<polygon fill="none" stroke="black" points="846.5,-180 652.5,-180 652.5,-144 846.5,-144 846.5,-180"/>
<text text-anchor="middle" x="749.5" y="-158.3" font-family="Times,serif" font-size="14.00">aws_subnet.pub&#45;subnet2</text>
</g>
<!-- [root] aws_route_table_association.association&#45;2 (expand)&#45;&gt;[root] aws_subnet.pub&#45;subnet2 (expand) -->
<g id="edge17" class="edge">
<title>[root] aws_route_table_association.association&#45;2 (expand)&#45;&gt;[root] aws_subnet.pub&#45;subnet2 (expand)</title>
<path fill="none" stroke="black" d="M721.65,-215.7C725.9,-207.64 731.06,-197.89 735.77,-188.98"/>
<polygon fill="black" stroke="black" points="738.88,-190.58 740.46,-180.1 732.69,-187.31 738.88,-190.58"/>
</g>
<!-- [root] aws_route_table_association.association&#45;3 (expand) -->
<g id="node10" class="node">
<title>[root] aws_route_table_association.association&#45;3 (expand)</title>
<polygon fill="none" stroke="black" points="1792.5,-252 1476.5,-252 1476.5,-216 1792.5,-216 1792.5,-252"/>
<text text-anchor="middle" x="1634.5" y="-230.3" font-family="Times,serif" font-size="14.00">aws_route_table_association.association&#45;3</text>
</g>
<!-- [root] aws_route_table_association.association&#45;3 (expand)&#45;&gt;[root] aws_route_table.Private_rt_1 (expand) -->
<g id="edge18" class="edge">
<title>[root] aws_route_table_association.association&#45;3 (expand)&#45;&gt;[root] aws_route_table.Private_rt_1 (expand)</title>
<path fill="none" stroke="black" d="M1634.25,-215.7C1634.14,-207.98 1634.01,-198.71 1633.89,-190.11"/>
<polygon fill="black" stroke="black" points="1637.39,-190.05 1633.74,-180.1 1630.39,-190.15 1637.39,-190.05"/>
</g>
<!-- [root] aws_subnet.pvt&#45;subnet1 (expand) -->
<g id="node15" class="node">
<title>[root] aws_subnet.pvt&#45;subnet1 (expand)</title>
<polygon fill="none" stroke="black" points="1991.5,-180 1801.5,-180 1801.5,-144 1991.5,-144 1991.5,-180"/>
<text text-anchor="middle" x="1896.5" y="-158.3" font-family="Times,serif" font-size="14.00">aws_subnet.pvt&#45;subnet1</text>
</g>
<!-- [root] aws_route_table_association.association&#45;3 (expand)&#45;&gt;[root] aws_subnet.pvt&#45;subnet1 (expand) -->
<g id="edge19" class="edge">
<title>[root] aws_route_table_association.association&#45;3 (expand)&#45;&gt;[root] aws_subnet.pvt&#45;subnet1 (expand)</title>
<path fill="none" stroke="black" d="M1698.26,-215.97C1735.82,-205.93 1783.5,-193.19 1822.69,-182.72"/>
<polygon fill="black" stroke="black" points="1823.7,-186.07 1832.46,-180.11 1821.89,-179.31 1823.7,-186.07"/>
</g>
<!-- [root] aws_route_table_association.association&#45;4 (expand) -->
<g id="node11" class="node">
<title>[root] aws_route_table_association.association&#45;4 (expand)</title>
<polygon fill="none" stroke="black" points="2126.5,-252 1810.5,-252 1810.5,-216 2126.5,-216 2126.5,-252"/>
<text text-anchor="middle" x="1968.5" y="-230.3" font-family="Times,serif" font-size="14.00">aws_route_table_association.association&#45;4</text>
</g>
<!-- [root] aws_route_table_association.association&#45;4 (expand)&#45;&gt;[root] aws_route_table.Private_rt_1 (expand) -->
<g id="edge20" class="edge">
<title>[root] aws_route_table_association.association&#45;4 (expand)&#45;&gt;[root] aws_route_table.Private_rt_1 (expand)</title>
<path fill="none" stroke="black" d="M1886.98,-215.97C1838.05,-205.74 1775.68,-192.71 1725.06,-182.13"/>
<polygon fill="black" stroke="black" points="1725.6,-178.67 1715.1,-180.05 1724.17,-185.52 1725.6,-178.67"/>
</g>
<!-- [root] aws_subnet.pvt&#45;subnet2 (expand) -->
<g id="node16" class="node">
<title>[root] aws_subnet.pvt&#45;subnet2 (expand)</title>
<polygon fill="none" stroke="black" points="2199.5,-180 2009.5,-180 2009.5,-144 2199.5,-144 2199.5,-180"/>
<text text-anchor="middle" x="2104.5" y="-158.3" font-family="Times,serif" font-size="14.00">aws_subnet.pvt&#45;subnet2</text>
</g>
<!-- [root] aws_route_table_association.association&#45;4 (expand)&#45;&gt;[root] aws_subnet.pvt&#45;subnet2 (expand) -->
<g id="edge21" class="edge">
<title>[root] aws_route_table_association.association&#45;4 (expand)&#45;&gt;[root] aws_subnet.pvt&#45;subnet2 (expand)</title>
<path fill="none" stroke="black" d="M2001.77,-215.88C2019.96,-206.51 2042.69,-194.81 2062.14,-184.8"/>
<polygon fill="black" stroke="black" points="2063.81,-187.88 2071.1,-180.19 2060.61,-181.65 2063.81,-187.88"/>
</g>
<!-- [root] aws_security_group.allow_http_ssh (expand)&#45;&gt;[root] aws_vpc.my&#45;vpc (expand) -->
<g id="edge22" class="edge">
<title>[root] aws_security_group.allow_http_ssh (expand)&#45;&gt;[root] aws_vpc.my&#45;vpc (expand)</title>
<path fill="none" stroke="black" d="M634.07,-144.94C637.24,-144.61 640.39,-144.3 643.5,-144 855.55,-123.42 909.26,-126.48 1121.5,-108 1153.06,-105.25 1187.84,-101.88 1217.81,-98.87"/>
<polygon fill="black" stroke="black" points="1218.19,-102.35 1227.78,-97.86 1217.48,-95.38 1218.19,-102.35"/>
</g>
<!-- [root] aws_subnet.pub&#45;subnet1 (expand)&#45;&gt;[root] aws_vpc.my&#45;vpc (expand) -->
<g id="edge23" class="edge">
<title>[root] aws_subnet.pub&#45;subnet1 (expand)&#45;&gt;[root] aws_vpc.my&#45;vpc (expand)</title>
<path fill="none" stroke="black" d="M348.77,-144.97C351.71,-144.62 354.63,-144.3 357.5,-144 695.63,-109.03 782.47,-132.73 1121.5,-108 1153.09,-105.7 1187.88,-102.4 1217.85,-99.32"/>
<polygon fill="black" stroke="black" points="1218.23,-102.8 1227.82,-98.29 1217.51,-95.84 1218.23,-102.8"/>
</g>
<!-- [root] var.pub_cidr -->
<g id="node23" class="node">
<title>[root] var.pub_cidr</title>
<polygon fill="none" stroke="black" points="546.5,-108 448.5,-108 448.5,-72 552.5,-72 552.5,-102 546.5,-108"/>
<polyline fill="none" stroke="black" points="546.5,-108 546.5,-102 "/>
<polyline fill="none" stroke="black" points="552.5,-102 546.5,-102 "/>
<text text-anchor="middle" x="500.5" y="-86.3" font-family="Times,serif" font-size="14.00">var.pub_cidr</text>
</g>
<!-- [root] aws_subnet.pub&#45;subnet1 (expand)&#45;&gt;[root] var.pub_cidr -->
<g id="edge24" class="edge">
<title>[root] aws_subnet.pub&#45;subnet1 (expand)&#45;&gt;[root] var.pub_cidr</title>
<path fill="none" stroke="black" d="M312.09,-143.97C350.42,-133.19 399.82,-119.3 438.42,-108.45"/>
<polygon fill="black" stroke="black" points="439.82,-111.69 448.5,-105.62 437.93,-104.96 439.82,-111.69"/>
</g>
<!-- [root] aws_subnet.pub&#45;subnet2 (expand)&#45;&gt;[root] aws_vpc.my&#45;vpc (expand) -->
<g id="edge25" class="edge">
<title>[root] aws_subnet.pub&#45;subnet2 (expand)&#45;&gt;[root] aws_vpc.my&#45;vpc (expand)</title>
<path fill="none" stroke="black" d="M846.52,-145.29C849.55,-144.85 852.55,-144.42 855.5,-144 982.27,-126.17 1130.2,-109.03 1217.63,-99.28"/>
<polygon fill="black" stroke="black" points="1218.17,-102.74 1227.73,-98.16 1217.4,-95.78 1218.17,-102.74"/>
</g>
<!-- [root] aws_subnet.pub&#45;subnet2 (expand)&#45;&gt;[root] var.pub_cidr -->
<g id="edge26" class="edge">
<title>[root] aws_subnet.pub&#45;subnet2 (expand)&#45;&gt;[root] var.pub_cidr</title>
<path fill="none" stroke="black" d="M688.91,-143.97C650.58,-133.19 601.18,-119.3 562.58,-108.45"/>
<polygon fill="black" stroke="black" points="563.07,-104.96 552.5,-105.62 561.18,-111.69 563.07,-104.96"/>
</g>
<!-- [root] aws_subnet.pvt&#45;subnet1 (expand)&#45;&gt;[root] aws_vpc.my&#45;vpc (expand) -->
<g id="edge27" class="edge">
<title>[root] aws_subnet.pvt&#45;subnet1 (expand)&#45;&gt;[root] aws_vpc.my&#45;vpc (expand)</title>
<path fill="none" stroke="black" d="M1801.42,-145.9C1796.72,-145.24 1792.06,-144.6 1787.5,-144 1639.65,-124.55 1466.2,-107.2 1369.16,-97.98"/>
<polygon fill="black" stroke="black" points="1369.43,-94.49 1359.14,-97.03 1368.77,-101.46 1369.43,-94.49"/>
</g>
<!-- [root] var.pvt_cidr -->
<g id="node24" class="node">
<title>[root] var.pvt_cidr</title>
<polygon fill="none" stroke="black" points="2045,-108 1950,-108 1950,-72 2051,-72 2051,-102 2045,-108"/>
<polyline fill="none" stroke="black" points="2045,-108 2045,-102 "/>
<polyline fill="none" stroke="black" points="2051,-102 2045,-102 "/>
<text text-anchor="middle" x="2000.5" y="-86.3" font-family="Times,serif" font-size="14.00">var.pvt_cidr</text>
</g>
<!-- [root] aws_subnet.pvt&#45;subnet1 (expand)&#45;&gt;[root] var.pvt_cidr -->
<g id="edge28" class="edge">
<title>[root] aws_subnet.pvt&#45;subnet1 (expand)&#45;&gt;[root] var.pvt_cidr</title>
<path fill="none" stroke="black" d="M1921.94,-143.88C1935.29,-134.89 1951.82,-123.76 1966.28,-114.03"/>
<polygon fill="black" stroke="black" points="1968.62,-116.68 1974.96,-108.19 1964.71,-110.87 1968.62,-116.68"/>
</g>
<!-- [root] aws_subnet.pvt&#45;subnet2 (expand)&#45;&gt;[root] aws_vpc.my&#45;vpc (expand) -->
<g id="edge29" class="edge">
<title>[root] aws_subnet.pvt&#45;subnet2 (expand)&#45;&gt;[root] aws_vpc.my&#45;vpc (expand)</title>
<path fill="none" stroke="black" d="M2009.33,-145.1C2006.36,-144.71 2003.41,-144.35 2000.5,-144 1771.72,-116.78 1499.52,-101.03 1369.71,-94.53"/>
<polygon fill="black" stroke="black" points="1369.64,-91.02 1359.48,-94.02 1369.29,-98.01 1369.64,-91.02"/>
</g>
<!-- [root] aws_subnet.pvt&#45;subnet2 (expand)&#45;&gt;[root] var.pvt_cidr -->
<g id="edge30" class="edge">
<title>[root] aws_subnet.pvt&#45;subnet2 (expand)&#45;&gt;[root] var.pvt_cidr</title>
<path fill="none" stroke="black" d="M2079.06,-143.88C2065.71,-134.89 2049.18,-123.76 2034.72,-114.03"/>
<polygon fill="black" stroke="black" points="2036.29,-110.87 2026.04,-108.19 2032.38,-116.68 2036.29,-110.87"/>
</g>
<!-- [root] provider[&quot;registry.terraform.io/hashicorp/aws&quot;] -->
<g id="node18" class="node">
<title>[root] provider[&quot;registry.terraform.io/hashicorp/aws&quot;]</title>
<polygon fill="none" stroke="black" points="885.5,-36 560.24,-18 885.5,0 1210.76,-18 885.5,-36"/>
<text text-anchor="middle" x="885.5" y="-14.3" font-family="Times,serif" font-size="14.00">provider[&quot;registry.terraform.io/hashicorp/aws&quot;]</text>
</g>
<!-- [root] aws_vpc.my&#45;vpc (expand)&#45;&gt;[root] provider[&quot;registry.terraform.io/hashicorp/aws&quot;] -->
<g id="edge31" class="edge">
<title>[root] aws_vpc.my&#45;vpc (expand)&#45;&gt;[root] provider[&quot;registry.terraform.io/hashicorp/aws&quot;]</title>
<path fill="none" stroke="black" d="M1227.95,-77.75C1158.1,-65.77 1047.25,-46.75 970.69,-33.62"/>
<polygon fill="black" stroke="black" points="971.03,-30.12 960.59,-31.88 969.85,-37.02 971.03,-30.12"/>
</g>
<!-- [root] var.InstanceTag -->
<g id="node19" class="node">
<title>[root] var.InstanceTag</title>
<polygon fill="none" stroke="black" points="1352,-36 1229,-36 1229,0 1358,0 1358,-30 1352,-36"/>
<polyline fill="none" stroke="black" points="1352,-36 1352,-30 "/>
<polyline fill="none" stroke="black" points="1358,-30 1352,-30 "/>
<text text-anchor="middle" x="1293.5" y="-14.3" font-family="Times,serif" font-size="14.00">var.InstanceTag</text>
</g>
<!-- [root] aws_vpc.my&#45;vpc (expand)&#45;&gt;[root] var.InstanceTag -->
<g id="edge32" class="edge">
<title>[root] aws_vpc.my&#45;vpc (expand)&#45;&gt;[root] var.InstanceTag</title>
<path fill="none" stroke="black" d="M1293.5,-71.7C1293.5,-63.98 1293.5,-54.71 1293.5,-46.11"/>
<polygon fill="black" stroke="black" points="1297,-46.1 1293.5,-36.1 1290,-46.1 1297,-46.1"/>
</g>
<!-- [root] var.vpc_cidr -->
<g id="node25" class="node">
<title>[root] var.vpc_cidr</title>
<polygon fill="none" stroke="black" points="1472.5,-36 1376.5,-36 1376.5,0 1478.5,0 1478.5,-30 1472.5,-36"/>
<polyline fill="none" stroke="black" points="1472.5,-36 1472.5,-30 "/>
<polyline fill="none" stroke="black" points="1478.5,-30 1472.5,-30 "/>
<text text-anchor="middle" x="1427.5" y="-14.3" font-family="Times,serif" font-size="14.00">var.vpc_cidr</text>
</g>
<!-- [root] aws_vpc.my&#45;vpc (expand)&#45;&gt;[root] var.vpc_cidr -->
<g id="edge33" class="edge">
<title>[root] aws_vpc.my&#45;vpc (expand)&#45;&gt;[root] var.vpc_cidr</title>
<path fill="none" stroke="black" d="M1326.28,-71.88C1344.13,-62.55 1366.4,-50.92 1385.5,-40.94"/>
<polygon fill="black" stroke="black" points="1387.35,-43.92 1394.59,-36.19 1384.11,-37.72 1387.35,-43.92"/>
</g>
<!-- [root] var.availability_zones -->
<g id="node21" class="node">
<title>[root] var.availability_zones</title>
<polygon fill="none" stroke="black" points="1807,-324 1644,-324 1644,-288 1813,-288 1813,-318 1807,-324"/>
<polyline fill="none" stroke="black" points="1807,-324 1807,-318 "/>
<polyline fill="none" stroke="black" points="1813,-318 1807,-318 "/>
<text text-anchor="middle" x="1728.5" y="-302.3" font-family="Times,serif" font-size="14.00">var.availability_zones</text>
</g>
<!-- [root] output.EC2&#45;Public&#45;IP (expand) -->
<g id="node26" class="node">
<title>[root] output.EC2&#45;Public&#45;IP (expand)</title>
<ellipse fill="none" stroke="black" cx="317.5" cy="-306" rx="180.87" ry="18"/>
<text text-anchor="middle" x="317.5" y="-302.3" font-family="Times,serif" font-size="14.00">[root] output.EC2&#45;Public&#45;IP (expand)</text>
</g>
<!-- [root] output.EC2&#45;Public&#45;IP (expand)&#45;&gt;[root] aws_instance.Ec2Instance (expand) -->
<g id="edge34" class="edge">
<title>[root] output.EC2&#45;Public&#45;IP (expand)&#45;&gt;[root] aws_instance.Ec2Instance (expand)</title>
<path fill="none" stroke="black" d="M267.13,-288.68C236.4,-278.72 196.87,-265.91 164.13,-255.3"/>
<polygon fill="black" stroke="black" points="164.8,-251.84 154.21,-252.08 162.64,-258.49 164.8,-251.84"/>
</g>
<!-- [root] output.vpc&#45;ID (expand) -->
<g id="node27" class="node">
<title>[root] output.vpc&#45;ID (expand)</title>
<ellipse fill="none" stroke="black" cx="1479.5" cy="-306" rx="146.47" ry="18"/>
<text text-anchor="middle" x="1479.5" y="-302.3" font-family="Times,serif" font-size="14.00">[root] output.vpc&#45;ID (expand)</text>
</g>
<!-- [root] output.vpc&#45;ID (expand)&#45;&gt;[root] aws_vpc.my&#45;vpc (expand) -->
<g id="edge35" class="edge">
<title>[root] output.vpc&#45;ID (expand)&#45;&gt;[root] aws_vpc.my&#45;vpc (expand)</title>
<path fill="none" stroke="black" d="M1582.41,-293.17C1599.79,-291.32 1617.65,-289.53 1634.5,-288 1690.08,-282.96 2097.48,-292.85 2135.5,-252 2146.4,-240.29 2146.21,-227.89 2135.5,-216 2084.21,-159.05 1862.12,-212.05 1792.5,-180 1771.37,-170.27 1775.58,-153.83 1754.5,-144 1687.95,-112.96 1482.39,-99.25 1369.56,-93.93"/>
<polygon fill="black" stroke="black" points="1369.42,-90.42 1359.27,-93.46 1369.1,-97.41 1369.42,-90.42"/>
</g>
<!-- [root] provider[&quot;registry.terraform.io/hashicorp/aws&quot;] (close) -->
<g id="node28" class="node">
<title>[root] provider[&quot;registry.terraform.io/hashicorp/aws&quot;] (close)</title>
<ellipse fill="none" stroke="black" cx="1023.5" cy="-306" rx="291.65" ry="18"/>
<text text-anchor="middle" x="1023.5" y="-302.3" font-family="Times,serif" font-size="14.00">[root] provider[&quot;registry.terraform.io/hashicorp/aws&quot;] (close)</text>
</g>
<!-- [root] provider[&quot;registry.terraform.io/hashicorp/aws&quot;] (close)&#45;&gt;[root] aws_instance.Ec2Instance (expand) -->
<g id="edge36" class="edge">
<title>[root] provider[&quot;registry.terraform.io/hashicorp/aws&quot;] (close)&#45;&gt;[root] aws_instance.Ec2Instance (expand)</title>
<path fill="none" stroke="black" d="M789.83,-295.21C630.01,-287.21 413.16,-273.77 213.16,-252.13"/>
<polygon fill="black" stroke="black" points="213.37,-248.63 203.05,-251.03 212.61,-255.59 213.37,-248.63"/>
</g>
<!-- [root] provider[&quot;registry.terraform.io/hashicorp/aws&quot;] (close)&#45;&gt;[root] aws_route.public_internet_gateway (expand) -->
<g id="edge37" class="edge">
<title>[root] provider[&quot;registry.terraform.io/hashicorp/aws&quot;] (close)&#45;&gt;[root] aws_route.public_internet_gateway (expand)</title>
<path fill="none" stroke="black" d="M1023.5,-287.7C1023.5,-279.98 1023.5,-270.71 1023.5,-262.11"/>
<polygon fill="black" stroke="black" points="1027,-262.1 1023.5,-252.1 1020,-262.1 1027,-262.1"/>
</g>
<!-- [root] provider[&quot;registry.terraform.io/hashicorp/aws&quot;] (close)&#45;&gt;[root] aws_route.public_internet_gateway&#45;2 (expand) -->
<g id="edge38" class="edge">
<title>[root] provider[&quot;registry.terraform.io/hashicorp/aws&quot;] (close)&#45;&gt;[root] aws_route.public_internet_gateway&#45;2 (expand)</title>
<path fill="none" stroke="black" d="M1092.8,-288.5C1135.74,-278.28 1191.09,-265.1 1236.12,-254.38"/>
<polygon fill="black" stroke="black" points="1236.93,-257.78 1245.85,-252.06 1235.31,-250.97 1236.93,-257.78"/>
</g>
<!-- [root] provider[&quot;registry.terraform.io/hashicorp/aws&quot;] (close)&#45;&gt;[root] aws_route_table_association.association&#45;1 (expand) -->
<g id="edge39" class="edge">
<title>[root] provider[&quot;registry.terraform.io/hashicorp/aws&quot;] (close)&#45;&gt;[root] aws_route_table_association.association&#45;1 (expand)</title>
<path fill="none" stroke="black" d="M886.32,-290.11C786.7,-279.3 651.38,-264.62 545.48,-253.12"/>
<polygon fill="black" stroke="black" points="545.64,-249.62 535.32,-252.02 544.89,-256.58 545.64,-249.62"/>
</g>
<!-- [root] provider[&quot;registry.terraform.io/hashicorp/aws&quot;] (close)&#45;&gt;[root] aws_route_table_association.association&#45;2 (expand) -->
<g id="edge40" class="edge">
<title>[root] provider[&quot;registry.terraform.io/hashicorp/aws&quot;] (close)&#45;&gt;[root] aws_route_table_association.association&#45;2 (expand)</title>
<path fill="none" stroke="black" d="M950.19,-288.5C904.67,-278.25 845.97,-265.04 798.29,-254.31"/>
<polygon fill="black" stroke="black" points="798.82,-250.84 788.29,-252.06 797.28,-257.67 798.82,-250.84"/>
</g>
<!-- [root] provider[&quot;registry.terraform.io/hashicorp/aws&quot;] (close)&#45;&gt;[root] aws_route_table_association.association&#45;3 (expand) -->
<g id="edge41" class="edge">
<title>[root] provider[&quot;registry.terraform.io/hashicorp/aws&quot;] (close)&#45;&gt;[root] aws_route_table_association.association&#45;3 (expand)</title>
<path fill="none" stroke="black" d="M1155.33,-289.9C1249.36,-279.12 1376.27,-264.58 1475.85,-253.18"/>
<polygon fill="black" stroke="black" points="1476.48,-256.63 1486.02,-252.01 1475.68,-249.67 1476.48,-256.63"/>
</g>
<!-- [root] provider[&quot;registry.terraform.io/hashicorp/aws&quot;] (close)&#45;&gt;[root] aws_route_table_association.association&#45;4 (expand) -->
<g id="edge42" class="edge">
<title>[root] provider[&quot;registry.terraform.io/hashicorp/aws&quot;] (close)&#45;&gt;[root] aws_route_table_association.association&#45;4 (expand)</title>
<path fill="none" stroke="black" d="M1226.36,-293.04C1380.83,-283.49 1599.02,-269.06 1800.12,-252.1"/>
<polygon fill="black" stroke="black" points="1800.62,-255.57 1810.29,-251.24 1800.03,-248.6 1800.62,-255.57"/>
</g>
<!-- [root] root -->
<g id="node29" class="node">
<title>[root] root</title>
<ellipse fill="none" stroke="black" cx="1251.5" cy="-378" rx="58.49" ry="18"/>
<text text-anchor="middle" x="1251.5" y="-374.3" font-family="Times,serif" font-size="14.00">[root] root</text>
</g>
<!-- [root] root&#45;&gt;[root] var.availability_zones -->
<g id="edge46" class="edge">
<title>[root] root&#45;&gt;[root] var.availability_zones</title>
<path fill="none" stroke="black" d="M1304.57,-370.36C1376.65,-361.19 1509.75,-343.7 1633.91,-324.06"/>
<polygon fill="black" stroke="black" points="1634.65,-327.48 1643.98,-322.46 1633.55,-320.57 1634.65,-327.48"/>
</g>
<!-- [root] root&#45;&gt;[root] output.EC2&#45;Public&#45;IP (expand) -->
<g id="edge43" class="edge">
<title>[root] root&#45;&gt;[root] output.EC2&#45;Public&#45;IP (expand)</title>
<path fill="none" stroke="black" d="M1195.18,-372.78C1053.44,-362.16 678.29,-334.04 467.21,-318.22"/>
<polygon fill="black" stroke="black" points="467.21,-314.71 456.97,-317.45 466.68,-321.69 467.21,-314.71"/>
</g>
<!-- [root] root&#45;&gt;[root] output.vpc&#45;ID (expand) -->
<g id="edge44" class="edge">
<title>[root] root&#45;&gt;[root] output.vpc&#45;ID (expand)</title>
<path fill="none" stroke="black" d="M1291.48,-364.73C1326.4,-354 1377.65,-338.27 1417.83,-325.93"/>
<polygon fill="black" stroke="black" points="1418.99,-329.24 1427.53,-322.96 1416.94,-322.55 1418.99,-329.24"/>
</g>
<!-- [root] root&#45;&gt;[root] provider[&quot;registry.terraform.io/hashicorp/aws&quot;] (close) -->
<g id="edge45" class="edge">
<title>[root] root&#45;&gt;[root] provider[&quot;registry.terraform.io/hashicorp/aws&quot;] (close)</title>
<path fill="none" stroke="black" d="M1211.52,-364.73C1177.31,-354.22 1127.42,-338.9 1087.63,-326.69"/>
<polygon fill="black" stroke="black" points="1088.59,-323.32 1078,-323.73 1086.54,-330.01 1088.59,-323.32"/>
</g>
</g>
</svg>
